<?xml version="1.0" standalone="no"?>
<!DOCTYPE svg PUBLIC "-//W3C//DTD SVG 20010904//EN"
 "http://www.w3.org/TR/2001/REC-SVG-20010904/DTD/svg10.dtd">
<svg version="1.0" xmlns="http://www.w3.org/2000/svg"
 width="382.000000pt" height="382.000000pt" viewBox="0 0 382.000000 382.000000"
 preserveAspectRatio="xMidYMid meet">
<metadata>
Created by potrace 1.14, written by Peter Selinger 2001-2017
</metadata>
<g transform="translate(0.000000,382.000000) scale(0.100000,-0.100000)"
fill="#000000" stroke="none">
<path d="M1897 2774 c-1 -1 -21 -4 -45 -7 -23 -2 -45 -7 -47 -9 -3 -2 -7 -29
-10 -59 -3 -30 -7 -59 -9 -65 -3 -7 -197 -10 -622 -9 -341 0 -624 -1 -631 -3
-16 -5 6 -139 31 -186 65 -120 127 -174 271 -237 23 -9 125 -13 422 -15 424
-2 390 -5 450 46 7 5 17 10 23 10 5 0 10 4 10 8 0 10 50 30 130 51 57 15 153
19 200 8 46 -10 136 -40 140 -46 3 -3 23 -18 45 -32 134 -88 215 -246 210
-411 -1 -35 -5 -73 -9 -85 -4 -12 -9 -32 -11 -44 -9 -48 -62 -135 -115 -190
-59 -61 -137 -110 -215 -133 -48 -15 -199 -16 -258 -2 -59 14 -176 78 -199
110 -6 9 -545 13 -554 4 -5 -6 47 -112 58 -116 4 -2 8 -9 8 -16 0 -12 49 -84
83 -121 16 -18 19 -18 50 -3 92 46 122 55 129 40 6 -15 124 -100 182 -130 32
-18 83 -39 112 -49 60 -19 60 -19 68 -117 2 -32 9 -62 15 -65 15 -9 85 -14
196 -14 130 1 164 9 164 41 0 44 11 126 18 132 6 5 88 39 113 46 27 8 70 30
70 36 0 4 5 8 12 8 9 0 112 72 128 89 30 34 39 34 115 1 86 -38 72 -44 144 60
35 51 96 166 96 182 0 3 3 10 8 14 17 17 7 29 -76 88 -46 33 -54 43 -46 57 26
50 28 255 3 375 -6 30 -3 34 57 74 35 24 65 44 66 45 6 3 -32 105 -39 105 -4
0 -8 9 -8 20 0 11 -4 20 -10 20 -5 0 -10 5 -10 11 0 15 -92 150 -105 156 -6 2
-46 -10 -88 -27 l-76 -30 -28 28 c-62 64 -256 172 -308 172 -20 0 -24 10 -30
76 -9 93 -12 101 -37 99 -13 -1 -27 0 -32 3 -9 5 -203 11 -209 6z"/>
<path d="M1926 2183 c-3 -3 -19 -7 -61 -16 -23 -5 -103 -58 -131 -86 l-30 -30
-450 2 -450 2 3 -46 c8 -134 109 -286 228 -343 104 -51 117 -53 401 -54 246
-2 270 -3 284 -20 16 -19 88 -69 133 -92 30 -15 181 -21 227 -8 32 8 70 24 94
40 49 33 128 127 109 129 -5 0 -62 2 -128 3 -112 2 -123 4 -161 30 -37 24 -59
54 -72 96 -8 27 -4 103 5 109 5 3 12 13 16 22 3 9 22 30 43 45 36 28 42 29
171 32 73 2 133 6 133 8 0 2 -10 20 -22 38 -28 43 -129 111 -188 127 -41 11
-146 19 -154 12z"/>
</g>
</svg>
